# xmcd
#
# Track frame offsets:
#	150
#	16482
#	33840
#	49195
#	63082
#	82540
#	102240
#	113460
#	134175
#	152832
#	166482
#	178105
#	189790
#
# Disc length: 2724 seconds
#
# Revision: 2
# Processed by: cddbd v1.4b42PL1 Copyright (c) Steve Scherf et al.
# Submitted via: audiograbber 1.80
#
DISCID=9a0aa20d
DTITLE=Paul Mauriat - Anniversary tour collection
DYEAR=1900
DGENRE=
TTITLE0=Nocturne
TTITLE1=Magnificent tree
TTITLE2=I will always love you (from the body guard)
TTITLE3=To C&A
TTITLE4=Yah yah yah
TTITLE5=Angelic demon
TTITLE6=Minuetto
TTITLE7=Calling you (from Bagdad cafe)
TTITLE8=Penelope
TTITLE9=Quartet for kobe
TTITLE10=Love is blue
TTITLE11=El bimbo
TTITLE12=I will follow him
EXTD=
EXTT0=
EXTT1=
EXTT2=
EXTT3=
EXTT4=
EXTT5=
EXTT6=
EXTT7=
EXTT8=
EXTT9=
EXTT10=
EXTT11=
EXTT12=
PLAYORDER=
